<?xml version="1.0" encoding="UTF-8"?>
<svg version="1.1" xmlns="http://www.w3.org/2000/svg" width="830" height="830">
<path d="M0 0 C3.23777073 1.21220126 6.43034169 2.5052646 9.62207031 3.83398438 C10.80454346 4.32278076 11.9870166 4.81157715 13.20532227 5.31518555 C68.8793005 28.71621456 68.8793005 28.71621456 85.24707031 45.08398438 C85.04774871 56.44531579 79.47681986 67.06235137 75.26733398 77.43164062 C73.90781883 80.7993604 72.57238348 84.17619859 71.24609375 87.55712891 C70.57785907 89.24731193 69.89872315 90.93322396 69.20898438 92.61474609 C68.22582022 95.02921215 67.29401684 97.45809827 66.37207031 99.89648438 C66.0665625 100.61884277 65.76105469 101.34120117 65.44628906 102.08544922 C64.51014036 104.41743572 64.51014036 104.41743572 64.24707031 108.08398438 C65.7769114 110.92110334 67.89570545 112.91060744 70.24707031 115.08398438 C71.26126364 116.12585207 72.27307633 117.1700437 73.28222656 118.21679688 C74.28874045 119.21681712 75.29784847 120.21423335 76.30957031 121.20898438 C76.81294922 121.70785156 77.31632813 122.20671875 77.83496094 122.72070312 C79.30419087 124.17662826 80.77541095 125.63051548 82.24707031 127.08398438 C90.50884949 135.25787229 98.12786206 143.90182373 105.24707031 153.08398438 C106.45363281 154.63279297 106.45363281 154.63279297 107.68457031 156.21289062 C112.47944976 162.39373255 117.14391448 168.64262405 121.65332031 175.03710938 C123.08931128 177.18467939 123.08931128 177.18467939 125.24707031 178.08398438 C132.29755824 178.44170359 138.55591905 177.41721822 145.42285156 175.89648438 C147.57191443 175.44063415 149.7210038 174.98490887 151.87011719 174.52929688 C155.21461821 173.80878445 158.55820816 173.08428095 161.90112305 172.35644531 C165.15625363 171.65115502 168.41430305 170.96078339 171.67285156 170.27148438 C172.65449783 170.05274658 173.6361441 169.83400879 174.64753723 169.60864258 C181.4510482 168.17643823 188.29598205 167.28921814 195.24707031 168.08398438 C197.80175781 170.18554688 197.80175781 170.18554688 199.24707031 173.08398438 C199.76527344 174.04046875 200.28347656 174.99695313 200.81738281 175.98242188 C209.41888033 195.21692637 215.1561015 215.77369923 220.87207031 236.02148438 C221.21488037 237.21668701 221.55769043 238.41188965 221.91088867 239.64331055 C225.10579361 251.24594762 225.10579361 251.24594762 224.24707031 257.08398438 C220.98244199 261.61980199 217.92779841 264.22373984 213.01269531 267.00195312 C212.42138824 267.3413089 211.83008118 267.68066467 211.22085571 268.03030396 C209.96463832 268.75010713 208.70553931 269.46490171 207.44378662 270.17495728 C204.16308983 272.0228757 200.90582928 273.91136564 197.64550781 275.79492188 C196.6837413 276.34866234 196.6837413 276.34866234 195.70254517 276.91358948 C190.43194623 279.95510195 185.24045978 283.104193 180.12207031 286.39648438 C179.44950195 286.82147217 178.77693359 287.24645996 178.08398438 287.68432617 C174.8488833 289.78953951 172.12972665 291.6640511 170.24707031 295.08398438 C169.84984862 297.16947185 169.84984862 297.16947185 169.99707031 299.33398438 C170.01253906 300.04039062 170.02800781 300.74679687 170.04394531 301.47460938 C170.20660394 303.56414708 170.45165668 305.6472045 170.72363281 307.7253418 C172.23538167 319.74668843 172.3242003 331.85702105 172.16894531 343.95507812 C172.15641724 345.06146637 172.14388916 346.16785461 172.13098145 347.30776978 C172.07659812 351.88435824 172.01888584 356.46040953 171.92480469 361.03637695 C171.85850262 364.4260703 171.82356316 367.81489283 171.79394531 371.20507812 C171.75053009 372.75804848 171.75053009 372.75804848 171.70623779 374.34239197 C171.57692938 379.95422595 171.57692938 379.95422595 174.39501953 384.5793457 C177.35468024 386.14075548 180.28002375 387.6643193 183.33300781 389.03710938 C184.50484619 389.57029785 185.67668457 390.10348633 186.8840332 390.65283203 C187.4955423 390.92766418 188.10705139 391.20249634 188.73709106 391.48565674 C191.90091377 392.90952294 195.05276908 394.35928914 198.20410156 395.81054688 C199.12717354 396.23531815 199.12717354 396.23531815 200.06889343 396.66867065 C220.01453712 405.88752048 220.01453712 405.88752048 223.24707031 410.08398438 C223.65137097 420.02508967 218.60849168 431.13359241 215.55419922 440.42700195 C214.63117486 443.24370097 213.72935147 446.06657696 212.82910156 448.890625 C201.14254854 485.03751115 201.14254854 485.03751115 192.24707031 490.08398438 C186.95630658 490.26430311 181.92766497 489.91471786 176.66894531 489.24414062 C175.97625549 489.15772812 175.28356567 489.07131561 174.56988525 488.98228455 C172.37833525 488.70830228 170.18767908 488.42788477 167.99707031 488.14648438 C162.41628885 487.43625978 156.83330014 486.75003485 151.24707031 486.08398438 C150.07724609 485.93300293 148.90742187 485.78202148 147.70214844 485.62646484 C146.64962891 485.50803223 145.59710937 485.38959961 144.51269531 485.26757812 C143.6080957 485.15857178 142.70349609 485.04956543 141.77148438 484.93725586 C138.51021621 485.12681313 136.85296353 486.15047393 134.24707031 488.08398438 C132.80431898 489.69200573 132.80431898 489.69200573 131.73925781 491.53320312 C131.31547852 492.20859131 130.89169922 492.88397949 130.45507812 493.57983398 C130.01518555 494.30307861 129.57529297 495.02632324 129.12207031 495.77148438 C128.15795543 497.30921792 127.19175416 498.84564505 126.22363281 500.38085938 C125.73282227 501.16267578 125.24201172 501.94449219 124.73632812 502.75 C122.40785014 506.39922124 119.96082352 509.96272975 117.49707031 513.52148438 C116.81257813 514.51535156 116.81257813 514.51535156 116.11425781 515.52929688 C114.11766074 518.41971938 112.09947965 521.28737787 110.03613281 524.13085938 C109.40449219 525.00226562 108.77285156 525.87367188 108.12207031 526.77148438 C107.58324219 527.49722656 107.04441406 528.22296875 106.48925781 528.97070312 C105.02495552 531.46185891 104.53223875 533.2029983 104.24707031 536.08398438 C105.1715423 538.67859829 105.1715423 538.67859829 106.74707031 541.21289062 C107.58431641 542.65559326 107.58431641 542.65559326 108.43847656 544.12744141 C111.30174462 548.80808073 114.24986147 553.42570986 117.24707031 558.02148438 C130.50221432 578.65778792 130.50221432 578.65778792 129.99291992 583.50073242 C129.14756519 586.42862061 128.1893855 587.63234291 126.03613281 589.75585938 C125.37371582 590.41577881 124.71129883 591.07569824 124.02880859 591.75561523 C123.31708496 592.44147705 122.60536133 593.12733887 121.87207031 593.83398438 C121.14616699 594.54627197 120.42026367 595.25855957 119.67236328 595.99243164 C114.89097161 600.63468788 109.987803 604.96626583 104.74707031 609.08398438 C102.18499998 611.13364064 99.78261887 613.29636263 97.37207031 615.52148438 C93.52520865 619.02366723 89.55227456 622.2854782 85.43457031 625.45898438 C84.62560303 626.0843811 84.62560303 626.0843811 83.80029297 626.72241211 C75.87216255 632.75896593 75.87216255 632.75896593 71.12207031 633.70898438 C58.03744217 631.59856048 47.66509154 619.00095158 39.89941406 609.11132812 C36.55320878 602.98057377 38.61753613 596.28250301 39.74707031 589.70898438 C43.80872635 563.87609325 39.01796762 539.65711352 25.78710938 517.04199219 C23.82199868 513.60448635 22.41905361 511.05184043 23.24707031 507.08398438 C24.97753906 505.00585938 24.97753906 505.00585938 27.43457031 502.83398438 C63.1964534 468.79190896 87.14467271 412.91716995 88.53556824 364.01948547 C88.61692377 359.74898748 88.63225149 355.48016162 88.62207031 351.20898438 C88.62075607 349.85703979 88.62075607 349.85703979 88.61941528 348.4777832 C88.50825352 313.70299795 80.5093069 278.31126882 63.24121094 247.88574219 C62.24812699 246.08589946 61.32601889 244.26443542 60.41894531 242.41992188 C55.59345728 232.70877125 49.49444559 224.38274104 42.72460938 215.93164062 C41.47510764 214.36914408 40.24551977 212.7907542 39.02050781 211.20898438 C21.72145301 188.99785228 0.58007927 172.0327773 -23.75292969 158.08398438 C-24.87175537 157.43816406 -24.87175537 157.43816406 -26.01318359 156.77929688 C-50.19033627 142.98468199 -76.79209624 134.87255368 -104.19311523 130.46362305 C-105.01207275 130.3241626 -105.83103027 130.18470215 -106.67480469 130.04101562 C-107.75133301 129.87049683 -107.75133301 129.87049683 -108.84960938 129.6965332 C-111.13755486 128.9601998 -112.19785936 127.88268239 -113.75292969 126.08398438 C-111.66737096 118.25220092 -108.58082493 111.76296172 -104.3269043 104.95068359 C-101.43293364 100.29209668 -98.82595617 95.55407374 -96.37792969 90.64648438 C-96.05663086 90.0087207 -95.73533203 89.37095703 -95.40429688 88.71386719 C-91.09202915 79.96638429 -88.49999643 70.91278257 -86.00292969 61.50976562 C-85.75542969 60.61128906 -85.50792969 59.7128125 -85.25292969 58.78710938 C-85.03636719 57.97918945 -84.81980469 57.17126953 -84.59667969 56.33886719 C-83.66959638 53.86127996 -82.42844636 52.1167119 -80.75292969 50.08398438 C-78.5235265 50.37383762 -76.29442255 50.66599239 -74.06542969 50.95898438 C-73.3907666 51.04559326 -72.71610352 51.13220215 -72.02099609 51.22143555 C-66.49145626 51.94484805 -61.02710183 52.91726042 -55.55761719 54.00976562 C-51.81048052 54.10892384 -50.66972637 53.47327528 -47.75292969 51.08398438 C-41.54373391 44.2765444 -37.00918438 36.21214605 -32.31542969 28.33398438 C-31.59657897 27.13573739 -30.87717987 25.93781921 -30.15722656 24.74023438 C-29.80187836 24.14867554 -29.44653015 23.5571167 -29.08041382 22.94763184 C-28.3673484 21.76169615 -27.65350708 20.57622662 -26.93887329 19.39123535 C-25.14075833 16.40738636 -23.36102788 13.41515784 -21.61181641 10.40234375 C-20.91817027 9.22839653 -20.22433013 8.05456391 -19.53027344 6.88085938 C-18.92304443 5.83768555 -18.31581543 4.79451172 -17.69018555 3.71972656 C-12.71126121 -3.05437138 -7.29291906 -2.42666126 0 0 Z " fill="#C5CED7" transform="translate(563.7529296875,93.916015625)"/>
<path d="M0 0 C6.77813018 4.66259576 10.2823354 8.97507099 12 17 C12.31904297 18.09828125 12.31904297 18.09828125 12.64453125 19.21875 C14.88979518 27.44655589 14.08913575 35.27820847 10.2578125 42.9140625 C4.9095529 51.78353649 -4.55311813 56.40615311 -14 60 C-16.15608826 60.44990211 -18.32305194 60.85279769 -20.5 61.1875 C-24.10358961 61.96580256 -25.63168286 62.53705411 -27.95751953 65.46044922 C-28.55161621 66.50217285 -29.14571289 67.54389648 -29.7578125 68.6171875 C-30.09156891 69.19018082 -30.42532532 69.76317413 -30.76919556 70.35353088 C-31.48683174 71.58811892 -32.19746839 72.82679717 -32.9017334 74.06906128 C-34.37655295 76.66204388 -35.89655088 79.22735598 -37.41461182 81.79518127 C-38.602894 83.80603819 -39.7866199 85.81950526 -40.96875 87.83398438 C-41.36578125 88.51033936 -41.7628125 89.18669434 -42.171875 89.88354492 C-42.97226354 91.24995498 -43.77077567 92.61746595 -44.56738281 93.98608398 C-48.85707613 101.3487672 -53.25144205 108.61899133 -58.1015625 115.62890625 C-58.85002441 116.71373291 -59.59848633 117.79855957 -60.36962891 118.91625977 C-65.96612244 125.97219407 -72.73679926 129.03884648 -81.24609375 131.34765625 C-82.75973511 131.78115891 -82.75973511 131.78115891 -84.30395508 132.22341919 C-87.67751714 133.18566381 -91.05734474 134.12370348 -94.4375 135.0625 C-96.87362697 135.75320765 -99.30924228 136.44572204 -101.74438477 137.13989258 C-106.33729686 138.44722781 -110.93155482 139.74942674 -115.52819729 141.04357815 C-124.8091168 143.65657029 -134.07838358 146.3089927 -143.34375 148.9765625 C-144.07837589 149.18804113 -144.81300179 149.39951977 -145.56988907 149.61740685 C-148.57524967 150.48267456 -151.58055141 151.34814607 -154.58574104 152.21400738 C-159.93656101 153.75567976 -165.2881724 155.29458087 -170.64013672 156.83227539 C-192.50698584 163.11630172 -214.36032385 169.44604702 -236.20329666 175.81256485 C-238.5343986 176.49181169 -240.86567118 177.1704698 -243.19699097 177.84896851 C-246.86614726 178.91697018 -250.5347965 179.98669672 -254.20306015 181.05776024 C-256.15960924 181.6287317 -258.11655323 182.19834946 -260.07351685 182.76789856 C-265.18562776 184.26275921 -270.29157558 185.76664159 -275.36715698 187.3815918 C-276.09545936 187.61286522 -276.82376173 187.84413864 -277.57413387 188.08242035 C-278.98340769 188.531995 -280.39145527 188.98543715 -281.79806614 189.44327545 C-284.65854939 190.35703038 -286.9753951 191 -290 191 C-290.26772217 191.71051514 -290.53544434 192.42103027 -290.8112793 193.15307617 C-292.03688456 196.0883366 -293.46124742 198.77833558 -295.01953125 201.55078125 C-295.62313477 202.62956543 -296.22673828 203.70834961 -296.84863281 204.81982422 C-297.16852173 205.38860291 -297.48841064 205.95738159 -297.81799316 206.543396 C-299.52260003 209.57567966 -301.21598825 212.61421923 -302.91015625 215.65234375 C-303.25501068 216.27034851 -303.59986511 216.88835327 -303.95516968 217.52508545 C-308.87016985 226.34192813 -313.6725604 235.21861889 -318.44042969 244.11572266 C-320.03397296 247.06282977 -321.65916491 249.99083537 -323.2890625 252.91796875 C-324.31820801 254.7992059 -325.34687472 256.68070508 -326.375 258.5625 C-326.85807617 259.41312012 -327.34115234 260.26374023 -327.83886719 261.14013672 C-329.90342549 264.965189 -330.99929559 267.32587901 -331.00390625 271.73828125 C-329.20038006 277.59798697 -325.57993517 282.08799592 -322 287 C-321.26523437 288.02351563 -320.53046875 289.04703125 -319.7734375 290.1015625 C-309.38301996 304.10603831 -297.10023665 317.6555826 -283 328 C-283.51258334 325.68541561 -284.03357576 323.37337965 -284.5625 321.0625 C-284.73160889 320.32193359 -284.90071777 319.58136719 -285.07495117 318.81835938 C-286.19740743 314.03980584 -287.46567071 309.32801324 -288.859375 304.62109375 C-289.18091553 303.52595459 -289.50245605 302.43081543 -289.83374023 301.30249023 C-290.47534901 299.13760077 -291.13065185 296.97671237 -291.80102539 294.82055664 C-295.50038845 282.28299555 -292.69696389 275.30759328 -286.75 263.875 C-286.11771275 262.6375206 -285.48604837 261.39972276 -284.85498047 260.16162109 C-279.3413526 249.40991602 -273.45026983 238.87741316 -267.38964844 228.42529297 C-266.13634638 226.23795941 -264.92151712 224.03599389 -263.7265625 221.81640625 C-255.14010114 205.95748484 -246.29979779 198.64535822 -229.29980469 193.51757812 C-227.88368009 193.08326342 -226.46766111 192.64860421 -225.05173874 192.21363068 C-207.15312561 186.74507863 -189.139882 181.65986984 -171.13602543 176.55161095 C-166.1322406 175.13067728 -161.12999687 173.70433907 -156.12762451 172.27844238 C-143.5031134 168.68083038 -130.87665009 165.09009622 -118.25 161.5 C-104.51199338 157.59380943 -90.77436288 153.68631858 -77.03890109 149.77118731 C-71.10669829 148.08053257 -65.17341532 146.39374011 -59.2392621 144.70994473 C-55.56950312 143.66782358 -51.90067956 142.62243969 -48.23210526 141.57615662 C-46.53129671 141.09181793 -44.83009675 140.60885134 -43.12848282 140.12734985 C-40.80963482 139.47099313 -38.49222567 138.80978028 -36.17510986 138.14733887 C-35.16309977 137.86281522 -35.16309977 137.86281522 -34.13064504 137.57254362 C-27.31460972 135.62307489 -27.31460972 135.62307489 -22.44921875 130.796875 C-21.77729492 129.83201172 -21.77729492 129.83201172 -21.09179688 128.84765625 C-20.62837891 128.15542969 -20.16496094 127.46320313 -19.6875 126.75 C-19.20474609 126.03199219 -18.72199219 125.31398438 -18.22460938 124.57421875 C-11.697037 114.69135216 -6.92810971 105.4871785 -5.12426758 93.70385742 C-3.89906913 86.26038854 -0.73553387 80.25693133 4.8125 75.125 C14.19321649 68.87118901 29.54051381 62.70810276 41 65 C47.97112177 67.15838421 55.50380545 69.97158273 60 76 C61.69520831 79.57761755 62.93021594 83.19248899 64 87 C64.28810547 87.96486328 64.28810547 87.96486328 64.58203125 88.94921875 C66.30268468 97.39167718 65.66539507 105.7042635 61 113 C54.19707654 122.94273429 45.37894772 126.05155917 33.90258789 128.20629883 C29.94454505 128.86855407 26.47040661 128.9595378 22.5 128.5 C20.16459285 128.3085609 20.16459285 128.3085609 18 129 C14.67748175 132.24086846 12.43668551 136.07370011 10 140 C8.50401708 142.12190633 6.98310208 144.22645935 5.4375 146.3125 C4.75558594 147.25738281 4.07367187 148.20226562 3.37109375 149.17578125 C-1.8220261 155.36132598 -6.62790277 158.78497285 -14.4453125 160.81054688 C-15.2671852 161.03989268 -16.0890579 161.26923849 -16.93583584 161.50553417 C-19.66097453 162.26121076 -22.39258312 162.9898715 -25.125 163.71875 C-27.07427867 164.25367609 -29.02308578 164.79032313 -30.97145081 165.3285675 C-35.13513615 166.4750133 -39.30178495 167.60966918 -43.47122192 168.73501587 C-50.05228559 170.51135076 -56.62609828 172.31351415 -63.19897461 174.11987305 C-72.15083322 176.5778623 -81.1054285 179.02559521 -90.06201172 181.46630859 C-107.76088042 186.29154277 -125.43578056 191.20254718 -143.10692215 196.12820053 C-145.55828385 196.81132508 -148.00981579 197.49383544 -150.46139526 198.17617798 C-170.52019255 203.75999662 -190.56391164 209.3910665 -210.5625 215.1875 C-212.04932785 215.6157457 -212.04932785 215.6157457 -213.56619263 216.05264282 C-216.27650013 216.83472577 -218.9843442 217.62473586 -221.69140625 218.41796875 C-222.84298218 218.749142 -222.84298218 218.749142 -224.01782227 219.08700562 C-231.35595925 221.26061599 -236.09297912 223.20894288 -240 230.125 C-240.36391846 230.76026611 -240.72783691 231.39553223 -241.1027832 232.05004883 C-241.93509406 233.51062123 -242.75914252 234.97592054 -243.57666016 236.44482422 C-245.19451062 239.34918493 -246.83720799 242.23884976 -248.48046875 245.12890625 C-252.95284489 253.01321711 -252.95284489 253.01321711 -257.32958984 260.95068359 C-258.45628619 263.00745609 -259.62465579 265.04187054 -260.83056641 267.05322266 C-261.3982373 268.05272949 -261.9659082 269.05223633 -262.55078125 270.08203125 C-263.06938721 270.95706299 -263.58799316 271.83209473 -264.12231445 272.73364258 C-266.3636904 281.07505254 -262.02621863 290.94477072 -259.6640625 298.9921875 C-259.18312637 300.65388474 -259.18312637 300.65388474 -258.69247437 302.34915161 C-257.67507601 305.85927015 -256.65004879 309.36710898 -255.625 312.875 C-254.94483559 315.2199138 -254.26514415 317.56496485 -253.5859375 319.91015625 C-251.26991173 327.91781541 -251.26991173 327.91781541 -248.90060425 335.90975952 C-248.26190642 338.10132134 -247.67154114 340.30723024 -247.11526489 342.52114868 C-245.43315832 349.35352362 -245.43315832 349.35352362 -240.97900391 354.52978516 C-239.82319824 354.94534668 -238.66739258 355.3609082 -237.4765625 355.7890625 C-236.85276703 356.0299057 -236.22897156 356.2707489 -235.58627319 356.51889038 C-233.61324858 357.26915818 -231.62402614 357.94750376 -229.625 358.625 C-228.29514318 359.11380347 -226.96698902 359.60726551 -225.640625 360.10546875 C-223.19493871 361.02191886 -220.74644315 361.90304357 -218.27978516 362.76416016 C-209.62030832 366.02709538 -209.62030832 366.02709538 -207.81713867 368.85522461 C-206.09683469 375.04130314 -205.15178014 381.20229892 -204.3125 387.5625 C-200.60840015 412.68490244 -191.57026148 435.1119881 -174.24609375 453.90234375 C-170.72924626 459.8225541 -172.17286806 469.35668072 -173.63574219 475.80029297 C-174.4312193 478.68915664 -175.30817761 481.53059802 -176.25 484.375 C-176.5495459 485.28435303 -176.8490918 486.19370605 -177.15771484 487.13061523 C-179.79215368 494.51612826 -179.79215368 494.51612826 -184 497 C-193.13798431 499.07904947 -204.22866283 495.05484289 -213.125 493 C-214.00940765 492.79880554 -214.89381531 492.59761108 -215.80502319 492.39031982 C-226.77937302 489.88492842 -237.62545894 487.18452737 -248.3125 483.625 C-249.75810303 483.14353516 -249.75810303 483.14353516 -251.23291016 482.65234375 C-258.42300527 480.12172925 -258.42300527 480.12172925 -261 477 C-261.94159741 474.17520778 -262.12909576 472.4260699 -262.1418457 469.50024414 C-262.15239738 468.1385183 -262.15239738 468.1385183 -262.16316223 466.74928284 C-262.16732651 465.77112106 -262.17149078 464.79295929 -262.17578125 463.78515625 C-262.19897326 461.71678663 -262.22309034 459.64842721 -262.24804688 457.58007812 C-262.28321053 454.31674304 -262.31253576 451.05378502 -262.32592773 447.7902832 C-262.34137661 444.64227698 -262.3815597 441.49537239 -262.42578125 438.34765625 C-262.42291862 436.88344994 -262.42291862 436.88344994 -262.41999817 435.3896637 C-262.4493518 430.11514626 -262.4493518 430.11514626 -264.74536133 425.51538086 C-267.00663301 423.99554184 -269.21565804 422.63509423 -271.6484375 421.40625 C-272.56109375 420.93856201 -273.47375 420.47087402 -274.4140625 419.98901367 C-275.39117187 419.49763916 -276.36828125 419.00626465 -277.375 418.5 C-283.70540868 415.28079744 -289.99948963 412.04068472 -296.1640625 408.51171875 C-297.63480225 407.67640625 -297.63480225 407.67640625 -299.13525391 406.82421875 C-301.0079804 405.75427172 -302.87270227 404.67015797 -304.72802734 403.5703125 C-308.46323858 401.45324587 -311.13617076 400.05069878 -315.4609375 399.796875 C-320.61225434 401.54809529 -325.00903484 404.21212666 -329.625 407.0625 C-330.59687256 407.64942627 -331.56874512 408.23635254 -332.57006836 408.84106445 C-336.78097734 411.39031658 -340.96844817 413.97703218 -345.15234375 416.5703125 C-345.74128418 416.93503662 -346.33022461 417.29976074 -346.93701172 417.67553711 C-348.44327121 418.613273 -349.94265215 419.56203332 -351.44140625 420.51171875 C-355.58418481 422.92148765 -359.13379447 424.69951705 -364 424 C-366.4375 422.453125 -366.4375 422.453125 -369 420.25 C-369.96421875 419.42371094 -370.9284375 418.59742188 -371.921875 417.74609375 C-376.76470752 413.45217743 -381.52316935 409.07080627 -386.24365234 404.64306641 C-388.06861426 402.93581123 -389.90246965 401.23854803 -391.73828125 399.54296875 C-399.66531591 392.20878954 -407.55464091 384.82774913 -415 377 C-415.73234863 376.2575 -415.73234863 376.2575 -416.47949219 375.5 C-419.97075199 371.73241888 -419.97075199 371.73241888 -420.09375 368.65234375 C-418.5010495 364.79004504 -416.56462002 361.19138862 -414.5 357.5625 C-414.04713623 356.75683594 -413.59427246 355.95117188 -413.12768555 355.12109375 C-410.17056666 349.91267887 -407.02715225 344.86613094 -403.73486328 339.86206055 C-391.95711203 321.7534541 -381.92984055 302.4880368 -371.81884766 283.41992188 C-368.94525367 278.01679375 -366.03364315 272.634314 -363.125 267.25 C-358.22440625 258.16546146 -353.36785568 249.05830995 -348.53219604 239.93911743 C-333.36115624 211.33317894 -333.36115624 211.33317894 -326 198 C-325.54544434 197.17387207 -325.09088867 196.34774414 -324.62255859 195.49658203 C-314.20321248 176.69737254 -305.68230891 169.82850604 -285 163.8515625 C-283.59512443 163.44307065 -282.1903313 163.03429522 -280.78561401 162.6252594 C-277.7719577 161.74834117 -274.75775402 160.87333995 -271.74310303 159.99984741 C-266.92952893 158.60506639 -262.11726004 157.20581927 -257.30517578 155.8059082 C-250.57400981 153.84808532 -243.84235703 151.89194592 -237.11035156 149.93701172 C-221.3624076 145.36355106 -205.61808222 140.77766547 -189.875 136.1875 C-189.12975697 135.97021492 -188.38451393 135.75292984 -187.61668777 135.52906036 C-167.70912967 129.72422042 -147.80572117 123.9054546 -127.91925049 118.02871704 C-125.64129529 117.35567303 -123.36310613 116.68342023 -121.08465576 116.01205444 C-116.08795026 114.5389573 -111.09544686 113.05515274 -106.11279297 111.53515625 C-102.91211254 110.559467 -99.70787234 109.6491099 -96.46923828 108.80859375 C-88.9993135 106.78037924 -84.45990908 104.677655 -80.47802734 97.81933594 C-79.99027832 96.88895508 -79.5025293 95.95857422 -79 95 C-77.82109563 93.01178294 -76.64002066 91.02485168 -75.45703125 89.0390625 C-74.23687078 86.90407144 -73.02219796 84.76593654 -71.8125 82.625 C-64.41279395 69.53428621 -64.41279395 69.53428621 -60.2890625 63.28125 C-53.34971977 53.63621007 -53.34971977 53.63621007 -52.25 42.3125 C-52.80355899 40.53213461 -53.38432487 38.75985016 -54 37 C-55.10710729 28.92621754 -52.97329239 21.24070965 -48.3046875 14.58203125 C-35.93049778 0.0285814 -18.5226186 -10.74432942 0 0 Z M-27 21 C-29.68468038 25.02702057 -29.68187737 28.2684363 -29 33 C-26.92591052 36.48150734 -24.87731237 38.70756254 -21 40 C-18.45709375 40.58350505 -18.45709375 40.58350505 -16 40 C-13.72878957 37.33720157 -13.05847169 35.46777349 -12.625 32 C-13.19479656 27.44162752 -14.7101175 25.01098899 -18.3125 22.1875 C-21.48041273 20.78772461 -23.57297617 20.54306349 -27 21 Z M25 87 C21.43460024 92.34809964 20.18152587 95.55451624 21 102 C22.8487501 105.91081753 23.94240063 107.54995771 27.9375 109.25 C31.23123892 109.28493101 31.23123892 109.28493101 33.8125 106.5625 C36.36360358 102.96094201 37.71572993 99.43070908 37 95 C35.45524491 92.08959187 33.62197001 89.99107657 31 88 C27.78697422 86.95926864 27.78697422 86.95926864 25 87 Z " fill="#557374" transform="translate(569,293)"/>
<path d="M0 0 C1.58964731 -0.01612682 3.17934235 -0.02759075 4.76904297 -0.03710938 C5.65429657 -0.0439978 6.53955017 -0.05088623 7.45162964 -0.0579834 C30.82540235 0.47384306 53.42126495 18.83413189 69.3125 34.2421875 C83.89549082 49.82481882 93.70745498 70.20131503 98 91 C98.22300781 92.03769531 98.44601562 93.07539062 98.67578125 94.14453125 C101.74929237 110.76658117 100.1161569 126.74525256 96 143 C95.78569336 143.84771973 95.57138672 144.69543945 95.35058594 145.56884766 C90.37916714 164.6548987 81.91088333 180.59387485 70.27905273 196.46826172 C57.67887572 211.8877403 57.67887572 211.8877403 53.2880249 230.2310791 C53.84931489 233.11769361 54.49744451 235.97357111 55.171875 238.8359375 C55.43514587 239.98532806 55.69841675 241.13471863 55.96966553 242.31893921 C60.48809222 261.73945198 65.50097139 281.04616609 70.42089844 300.36773682 C72.61577855 308.99068786 74.80372119 317.61540149 76.99150848 326.24015427 C77.7489401 329.22334793 78.50836626 332.20602805 79.26812744 335.18862915 C79.73380783 337.02108685 80.19944724 338.85355496 80.66503906 340.68603516 C80.87283997 341.49957962 81.08064087 342.31312408 81.29473877 343.15132141 C85.66293722 360.37062776 85.66293722 360.37062776 85 367 C78.92133433 376.18146486 66.24696135 379.58057857 56 382 C54.68 382 53.36 382 52 382 C51.82146296 381.34400944 51.64292591 380.68801888 51.45897865 380.01214981 C47.11526849 364.0533998 42.76689588 348.09592837 38.41332436 332.13986588 C36.30808686 324.42361937 34.20443193 316.70694792 32.10449219 308.98925781 C30.27426546 302.2628317 28.4410797 295.53722033 26.60433042 288.81257224 C25.63181848 285.25163503 24.66079697 281.69030643 23.69331741 278.12799835 C22.61345291 274.15210257 21.52698628 270.17804017 20.43994141 266.20410156 C20.11985611 265.02158813 19.79977081 263.83907471 19.46998596 262.62072754 C19.17274124 261.53821716 18.87549652 260.45570679 18.56924438 259.34039307 C18.31298594 258.40016422 18.05672749 257.45993538 17.79270363 256.49121475 C16.33951653 251.7461352 16.33951653 251.7461352 12.6875 248.6875 C9.62051343 247.90292204 7.9842702 247.97906546 5 249 C3.06345052 250.01970318 3.06345052 250.01970318 2 252 C1.48730485 258.28756389 3.01339609 263.79103374 4.6484375 269.83203125 C4.93284195 270.90915375 5.2172464 271.98627625 5.51026917 273.09603882 C6.45675481 276.67048916 7.41586723 280.24142444 8.375 283.8125 C9.04039857 286.31730391 9.70518181 288.82227136 10.36938477 291.32739258 C13.97147317 304.88504215 17.6527702 318.42068052 21.37265015 331.94644356 C22.00015255 334.22853608 22.62688221 336.51083955 23.25341797 338.79319763 C25.08156088 345.45036387 26.91293477 352.10649802 28.76534748 358.75695801 C29.5318038 361.5138072 30.29218382 364.27230826 31.05122185 367.03120804 C31.57501316 368.92679718 32.10679649 370.82017228 32.6388092 372.71347046 C32.95128098 373.85240753 33.26375275 374.9913446 33.58569336 376.16479492 C33.99748085 377.64564827 33.99748085 377.64564827 34.41758728 379.15641785 C35.03600146 382.17577417 35.10309686 384.92636824 35 388 C31.62883171 389.01323683 28.25252736 390.00818641 24.875 391 C23.92367187 391.28617187 22.97234375 391.57234375 21.9921875 391.8671875 C10.84436801 395.11863485 10.84436801 395.11863485 6.0234375 393.22265625 C-1.75950952 387.74508453 -3.63658456 378.51747922 -6.109375 369.75 C-6.39340683 368.76257813 -6.67743866 367.77515625 -6.97007751 366.7578125 C-7.90316021 363.50701385 -8.82666081 360.25357826 -9.75 357 C-10.40425825 354.71341414 -11.05897065 352.42695818 -11.71411133 350.140625 C-15.31707488 337.54256302 -18.86807135 324.92996758 -22.40234375 312.3125 C-22.58278103 311.66856293 -22.76321831 311.02462585 -22.94912338 310.36117554 C-24.87942363 303.47182487 -26.80465589 296.58110231 -28.71972656 289.6875 C-29.35871526 287.39583091 -29.99771224 285.10416413 -30.63671875 282.8125 C-30.91845444 281.79260986 -31.20019012 280.77271973 -31.49046326 279.72192383 C-36.40416246 261.51129667 -36.40416246 261.51129667 -50.1953125 249.56054688 C-54.6344307 247.09059183 -59.25383737 245.14177331 -63.9375 243.1875 C-65.9605417 242.32242885 -67.98266372 241.45520411 -70.00390625 240.5859375 C-71.00695801 240.15506836 -72.01000977 239.72419922 -73.04345703 239.28027344 C-95.74080708 229.45162739 -95.74080708 229.45162739 -104 222 C-104.55945313 221.57976562 -105.11890625 221.15953125 -105.6953125 220.7265625 C-127.46120107 204.02250848 -141.0322095 173.39299173 -145.60083008 147.07519531 C-150.13399017 112.1518409 -140.99569524 76.14179056 -119.64575195 48.05810547 C-112.61416173 39.03817506 -112.61416173 39.03817506 -109 37 C-108.01 37.33 -107.02 37.66 -106 38 C-104.89915466 40.32788086 -104.89915466 40.32788086 -103.86889648 43.46484375 C-103.47855728 44.63974365 -103.08821808 45.81464355 -102.68605042 47.02514648 C-102.26787984 48.32904483 -101.85041543 49.63316982 -101.43359375 50.9375 C-100.99243085 52.29056682 -100.55089034 53.64351058 -100.10899353 54.99633789 C-95.06368196 70.55499463 -90.56473923 86.27773242 -86.0625 102 C-84.60986275 107.07075665 -83.15304039 112.140248 -81.68670464 117.20706177 C-81.11307772 119.19651526 -80.54645753 121.18787081 -79.98023987 123.17944336 C-79.63234909 124.3835083 -79.28445831 125.58757324 -78.92602539 126.828125 C-78.62531631 127.8790332 -78.32460724 128.92994141 -78.01478577 130.01269531 C-76.11086733 135.7988775 -76.11086733 135.7988775 -72.31201172 140.36450195 C-71.69084473 140.65284912 -71.06967773 140.94119629 -70.4296875 141.23828125 C-69.71039063 141.57915771 -68.99109375 141.92003418 -68.25 142.27124023 C-67.46625 142.61485596 -66.6825 142.95847168 -65.875 143.3125 C-64.64136719 143.87336304 -64.64136719 143.87336304 -63.3828125 144.44555664 C-56.36536115 147.5591614 -49.20694918 150.29725049 -42 152.9375 C-40.97503418 153.31495361 -39.95006836 153.69240723 -38.89404297 154.08129883 C-27.41753344 158.49708597 -27.41753344 158.49708597 -15.625 157.875 C-8.84555972 153.03254266 -4.13673645 147.51907476 1 141 C1.80953125 139.98292969 2.6190625 138.96585938 3.453125 137.91796875 C9.76458136 129.90837384 15.43495007 121.54021123 21 113 C21.99 111.515 21.99 111.515 23 110 C22.60327746 104.89760716 21.32312834 100.03960031 19.97460938 95.11889648 C19.55325372 93.55309809 19.13190816 91.98729698 18.71057129 90.42149353 C18.48787064 89.59978102 18.26516998 88.7780685 18.03572083 87.93145561 C16.84168939 83.51341884 15.67117106 79.08912346 14.49609375 74.66601562 C13.00710915 69.06802922 11.51176178 63.47198142 9.99267578 57.88208008 C-0.81014331 18.07698017 -0.81014331 18.07698017 0 0 Z " fill="#547273" transform="translate(367,18)"/>
<path d="M0 0 C6.69295077 5.10179644 12.15357415 12.05776646 14 20.375 C14.91954928 29.72375105 12.30273259 38.76625921 6.79296875 46.37109375 C0.74744814 53.12785208 -7.35839045 56.76619321 -16.2578125 57.7265625 C-23.87392278 58.04459787 -29.52905155 56.90107892 -36.37890625 53.56640625 C-41.30391928 51.32776396 -44.60632034 51.24484922 -49.80908203 52.68261719 C-50.95442413 52.99334167 -52.09976624 53.30406616 -53.27981567 53.62420654 C-54.51005463 53.96993713 -55.74029358 54.31566772 -57.0078125 54.671875 C-58.29684541 55.02580262 -59.58614705 55.37875279 -60.8757019 55.73077393 C-64.27063314 56.66031851 -67.66178746 57.60297188 -71.05230713 58.54846191 C-74.46761709 59.49846097 -77.88626412 60.43627852 -81.3046875 61.375 C-86.34317205 62.75994231 -91.37973856 64.15155301 -96.41455078 65.54980469 C-102.2715665 67.17598788 -108.13389453 68.78193928 -114 70.375 C-113.07058265 74.68928227 -112.13000111 79.00105875 -111.1875 83.3125 C-110.92646484 84.52486328 -110.66542969 85.73722656 -110.39648438 86.98632812 C-109.63422157 90.45885869 -108.82618645 93.91718955 -108 97.375 C-107.70923584 98.73999634 -107.70923584 98.73999634 -107.41259766 100.13256836 C-106.31253574 104.45487634 -106.31253574 104.45487634 -103.34838867 107.62231445 C-101.2633787 108.62806156 -99.20619421 109.36323766 -97 110.0625 C-95.45279096 110.62704643 -93.90720763 111.19606823 -92.36328125 111.76953125 C-91.61256348 112.03975098 -90.8618457 112.3099707 -90.08837891 112.58837891 C-68.68341312 120.65089934 -49.04127955 140.39163634 -36.4375 159.1875 C-36.04433594 159.77289551 -35.65117188 160.35829102 -35.24609375 160.96142578 C-29.65260308 169.6405617 -26.83654265 178.87189787 -24.33520508 188.80419922 C-23.8128418 190.87364589 -23.27551308 192.93878624 -22.73632812 195.00390625 C-16.08078859 220.82527248 -20.61578648 245.55535013 -33.83984375 268.578125 C-50.36455068 294.39586753 -74.30902239 312.17352405 -104.234375 319.5625 C-122.77233837 323.56239251 -141.538138 323.82761921 -160 319.375 C-160.98081543 319.14151855 -160.98081543 319.14151855 -161.98144531 318.90332031 C-177.7466299 314.97574325 -192.95381377 307.3026118 -205 296.375 C-205.825 295.67890625 -206.65 294.9828125 -207.5 294.265625 C-224.3235598 279.80146688 -233.46314032 262.87608511 -239.32495117 241.7980957 C-239.90002233 239.73387103 -240.53028671 237.68515302 -241.171875 235.640625 C-242.67794456 229.41935696 -242.3471402 222.92338962 -242.3125 216.5625 C-242.31067719 215.87414062 -242.30885437 215.18578125 -242.30697632 214.4765625 C-242.17908007 185.78780864 -234.96635127 162.22463648 -216.89819336 139.68969727 C-216.40585205 139.06635498 -215.91351074 138.4430127 -215.40625 137.80078125 C-214.74592773 136.98734253 -214.74592773 136.98734253 -214.07226562 136.1574707 C-211.80318351 132.38548334 -211.86422054 129.38623438 -212.83276367 125.20581055 C-213.26681165 123.55484324 -213.71263801 121.90694354 -214.16796875 120.26171875 C-214.4040535 119.37450638 -214.64013824 118.48729401 -214.88337708 117.57319641 C-215.6412711 114.73346169 -216.41391942 111.89799725 -217.1875 109.0625 C-217.68917455 107.19754065 -218.18983556 105.33230834 -218.68945312 103.46679688 C-219.42665872 100.715551 -220.1639119 97.96432155 -220.90281677 95.21353149 C-222.39919661 89.63872355 -223.8916081 84.06322825 -225.328125 78.47265625 C-225.64040039 77.26746338 -225.95267578 76.06227051 -226.27441406 74.82055664 C-227.39886639 69.48092147 -228.262205 63.73741132 -227 58.375 C-223.64744636 55.23849815 -220.66128599 53.66152067 -216.28515625 52.3671875 C-214.57090454 51.85406006 -214.57090454 51.85406006 -212.82202148 51.33056641 C-211.58137939 50.97397949 -210.3407373 50.61739258 -209.0625 50.25 C-207.75128515 49.86540665 -206.44017097 49.48046992 -205.12915039 49.09521484 C-142.39148513 30.80975248 -142.39148513 30.80975248 -133 32.375 C-129.6839403 34.37714925 -126.71037959 36.60188015 -124 39.375 C-124 40.035 -124 40.695 -124 41.375 C-116.85156868 39.49725545 -109.70537217 37.61124106 -102.56182957 35.71497726 C-99.24383391 34.83448124 -95.92516568 33.95672676 -92.60473633 33.08544922 C-88.77722061 32.08097937 -84.95302541 31.06420255 -81.12890625 30.046875 C-79.95042618 29.73941345 -78.77194611 29.4319519 -77.55775452 29.11517334 C-66.13711553 26.6977268 -66.13711553 26.6977268 -57.4921875 19.89453125 C-57.18667969 18.55455078 -57.18667969 18.55455078 -56.875 17.1875 C-54.43882139 8.96814062 -49.79048838 2.59710086 -42.23046875 -1.62890625 C-29.17720937 -7.45829529 -12.45786213 -7.67950405 0 0 Z M-21 13.375 C-25.24760756 15.32660347 -28.87191986 18.16262739 -31 22.375 C-31.75863726 26.86301296 -32.0446586 30.80268221 -29.46875 34.6796875 C-28.9840625 35.23914063 -28.499375 35.79859375 -28 36.375 C-23.37550673 36.24823878 -23.37550673 36.24823878 -19.45703125 34.04296875 C-15.53354959 29.31408029 -14.4884552 26.51353758 -15 20.375 C-17.2587937 16.13471381 -17.2587937 16.13471381 -21 13.375 Z M-162.8125 168.125 C-167.38912186 172.8198695 -172.01021448 177.35027515 -176.98022461 181.62890625 C-180.51090653 184.68117714 -183.94585531 187.83463567 -187.375 191 C-188.08527344 191.64195312 -188.79554688 192.28390625 -189.52734375 192.9453125 C-190.20667969 193.574375 -190.88601563 194.2034375 -191.5859375 194.8515625 C-192.1948584 195.40924316 -192.8037793 195.96692383 -193.43115234 196.54150391 C-195.46367847 198.91689625 -196.32124095 200.27908867 -197 203.375 C-196.52551346 206.8030148 -195.57062037 210.06426243 -194.60546875 213.3828125 C-194.33865799 214.34524872 -194.07184723 215.30768494 -193.79695129 216.29928589 C-192.94174537 219.37050249 -192.06488122 222.43505337 -191.1875 225.5 C-190.60730648 227.57121804 -190.02851393 229.64282907 -189.45117188 231.71484375 C-187.43974822 242.69403215 -187.43974822 242.69403215 -182.25317383 251.40234375 C-174.5621584 254.37016339 -166.67812915 256.40452336 -158.6875 258.375 C-156.02359856 259.03717625 -153.36092406 259.70405165 -150.69921875 260.375 C-150.05171158 260.53759811 -149.40420441 260.70019623 -148.73707581 260.86772156 C-143.36163931 262.23748816 -138.08375278 263.8541587 -132.81103516 265.57348633 C-128.44735553 266.81770729 -124.44418623 267.49370895 -120 266.375 C-116.85411013 264.47090876 -114.50476972 262.04642759 -112 259.375 C-110.50264317 257.87236148 -109.00256629 256.37242931 -107.5 254.875 C-106.35917969 253.72257812 -106.35917969 253.72257812 -105.1953125 252.546875 C-101.93463696 249.32101094 -98.48506541 246.35425847 -95 243.375 C-93.07785242 241.71847182 -91.15778141 240.05957389 -89.23876953 238.39941406 C-87.8907023 237.23329259 -86.54145252 236.06853651 -85.19091797 234.90527344 C-84.56459473 234.36418945 -83.93827148 233.82310547 -83.29296875 233.265625 C-82.45028442 232.53907715 -82.45028442 232.53907715 -81.59057617 231.79785156 C-80.80324097 231.09354004 -80.80324097 231.09354004 -80 230.375 C-79.44594482 229.90690918 -78.89188965 229.43881836 -78.32104492 228.95654297 C-76.10300662 226.30112768 -76.55032889 223.82786183 -76.65332031 220.48730469 C-77.37385237 214.01875354 -79.18853255 207.77086991 -80.875 201.5 C-81.60863084 198.73358694 -82.33315093 195.96490098 -83.0546875 193.1953125 C-83.23231628 192.52856506 -83.40994507 191.86181763 -83.59295654 191.17486572 C-84.92358217 186.05703848 -85.67720979 180.99038591 -86.12158203 175.72607422 C-86.83399084 173.10365726 -86.83399084 173.10365726 -89.68066406 171.65209961 C-92.86236707 170.42795365 -95.90382239 169.5147211 -99.2265625 168.76171875 C-100.41419189 168.48593994 -101.60182129 168.21016113 -102.82543945 167.92602539 C-104.07929443 167.64106201 -105.33314941 167.35609863 -106.625 167.0625 C-116.42476818 164.79481935 -126.1110315 162.34723946 -135.65673828 159.15307617 C-148.24108018 155.09428478 -154.04753859 159.08793725 -162.8125 168.125 Z " fill="#537172" transform="translate(620,464.625)"/>
<path d="M0 0 C5.74253208 2.2867603 11.14414175 5.32338069 16.57861328 8.25195312 C33.29555137 18.46500197 33.29555137 18.46500197 51.51611328 22.00195312 C53.40348467 20.88543878 53.40348467 20.88543878 55.00439453 19.22070312 C55.62459473 18.629104 56.24479492 18.03750488 56.88378906 17.42797852 C57.52558105 16.79239014 58.16737305 16.15680176 58.82861328 15.50195312 C59.4936084 14.86572021 60.15860352 14.2294873 60.84375 13.57397461 C64.9919529 9.58555208 69.01488618 5.49513997 72.80517578 1.16210938 C74.51611328 0.00195312 74.51611328 0.00195312 77.02392578 0.09570312 C79.87631574 1.13293584 80.890048 2.08489645 82.76611328 4.43945312 C83.36552734 5.16132813 83.96494141 5.88320312 84.58251953 6.62695312 C85.53964844 7.80257812 85.53964844 7.80257812 86.51611328 9.00195312 C96.66382861 21.20267445 107.50873418 28.48708337 121.86254883 34.93334961 C127.89906704 37.75109964 131.3204887 40.07206801 134.51611328 46.00195312 C134.51611328 50.00195312 134.51611328 50.00195312 133.10668945 51.59423828 C132.451604 52.1129248 131.79651855 52.63161133 131.12158203 53.16601562 C116.77676699 65.02910513 104.17308447 78.76696078 93.51611328 94.00195312 C93.07122559 94.62875977 92.62633789 95.25556641 92.16796875 95.90136719 C89.14444025 100.18404284 86.28183744 104.5488214 83.51611328 109.00195312 C82.91186523 109.9677832 82.91186523 109.9677832 82.29541016 110.953125 C50.89570349 161.95898765 43.94250392 226.13076822 57.17626953 283.73632812 C57.62537569 285.82433544 58.0722012 287.91283538 58.51611328 290.00195312 C58.7276001 290.84725586 58.93908691 291.69255859 59.15698242 292.56347656 C60.72157241 300.73881165 56.71381735 306.79618086 52.82861328 313.75195312 C52.1363686 315.03261807 51.44628771 316.31445483 50.75830078 317.59741211 C49.0289067 320.80965222 47.27225103 324.00603328 45.50787354 327.19915771 C44.01610328 329.910858 42.55354383 332.63804371 41.09033203 335.36523438 C38.67649109 339.8550612 36.21928175 344.31864671 33.73974609 348.77246094 C32.64982426 350.75832809 31.60175209 352.75850293 30.57080078 354.77539062 C26.83562735 361.81141499 22.66102072 366.29234853 15.51611328 370.00195312 C14.85611328 370.00195312 14.19611328 370.00195312 13.51611328 370.00195312 C8.33304902 359.8964256 3.48223527 349.68614114 -1.06933594 339.27880859 C-1.47039551 338.37662598 -1.87145508 337.47444336 -2.28466797 336.54492188 C-2.63698486 335.74078857 -2.98930176 334.93665527 -3.35229492 334.1081543 C-4.58162515 331.82003522 -5.3601464 330.51043381 -7.48388672 329.00195312 C-12.13836671 328.04238189 -16.74959277 327.84251157 -21.49169922 327.72070312 C-22.80912109 327.68332031 -24.12654297 327.6459375 -25.48388672 327.60742188 C-26.85887662 327.57187304 -28.23387677 327.53671826 -29.60888672 327.50195312 C-57.19097496 326.79353175 -57.19097496 326.79353175 -61.54638672 324.12695312 C-67.32585676 314.80522726 -69.38017081 303.2997812 -71.98388672 292.75195312 C-72.18053925 291.96114349 -72.37719177 291.17033386 -72.57980347 290.3555603 C-75.00798488 280.5588569 -77.30098003 270.75991468 -79.04638672 260.81445312 C-79.20236328 259.93305664 -79.35833984 259.05166016 -79.51904297 258.14355469 C-81.81617335 244.02393359 -81.81617335 244.02393359 -78.93701172 239.65429688 C-75.84273521 237.5700947 -72.65346562 236.01958471 -69.23388672 234.56445312 C-68.48751953 234.23372803 -67.74115234 233.90300293 -66.97216797 233.56225586 C-62.17332261 231.47024751 -57.32591168 229.5478358 -52.42169189 227.72010803 C-49.50143568 226.6285916 -46.59125745 225.51131445 -43.68078613 224.39401245 C-42.2208692 223.8427411 -40.75585078 223.30478832 -39.28601074 222.7805481 C-31.2970751 220.27108161 -31.2970751 220.27108161 -25.15722656 215.06640625 C-24.55764438 212.6413055 -24.48668269 210.50038765 -24.48388672 208.00195312 C-24.2582898 205.86270133 -24.0203288 203.72473305 -23.77294922 201.58789062 C-23.54910823 199.1844751 -23.3278679 196.78081631 -23.10888672 194.37695312 C-21.22001107 175.03584451 -19.02350955 154.32307782 -12.36669922 135.91210938 C-11.37056661 132.62839789 -10.9567008 130.40593807 -11.48388672 127.00195312 C-13.68036642 124.40343775 -13.68036642 124.40343775 -16.73388672 122.18945312 C-17.27456787 121.76349854 -17.81524902 121.33754395 -18.37231445 120.89868164 C-20.06070944 119.57804134 -21.76819525 118.28687133 -23.48388672 117.00195312 C-24.50095703 116.23367188 -25.51802734 115.46539062 -26.56591797 114.67382812 C-28.54936679 113.1868914 -30.53765206 111.70638386 -32.53076172 110.23242188 C-36.44878332 107.2731754 -40.21666698 104.14729236 -43.99560547 101.01367188 C-46.15133161 99.27081636 -48.33323823 97.64489332 -50.60888672 96.06445312 C-53.48388672 94.00195312 -53.48388672 94.00195312 -54.48388672 92.00195312 C-55.49705773 83.98180502 -52.23239533 78.05009556 -48.79638672 70.93945312 C-48.20518853 69.69354281 -47.61420857 68.44752892 -47.0234375 67.20141602 C-41.85735677 56.40447431 -36.09634645 45.97537839 -30.03613281 35.65527344 C-28.50574545 33.03931719 -27.0008042 30.41035306 -25.50341797 27.77539062 C-8.2620327 -2.497513 -8.2620327 -2.497513 0 0 Z " fill="#C5CFD8" transform="translate(151.48388671875,222.998046875)"/>
<path d="M0 0 C56.80531575 10.2209782 113.80904351 31.38531547 152 77 C152.54527344 77.62003906 153.09054687 78.24007812 153.65234375 78.87890625 C157 82.72731994 157 82.72731994 157 85 C157.99 85.33 158.98 85.66 160 86 C161.38938077 87.96147874 162.71255371 89.97015768 164 92 C164.82740592 93.13321515 165.66638647 94.2580528 166.515625 95.375 C171.96826519 102.59225509 176.84571749 109.82027024 181.1484375 117.78125 C182.5119359 120.15155101 183.84769267 122.19110204 185.47265625 124.359375 C188.29772695 128.23473754 190.18235978 132.35443598 192.0625 136.75 C192.40974121 137.55074951 192.75698242 138.35149902 193.11474609 139.17651367 C200.24662329 155.764421 205.08551721 172.9718144 208.8125 190.625 C209.12272095 192.08039185 209.12272095 192.08039185 209.43920898 193.56518555 C211.98369493 206.05639569 212.21390754 218.39898715 212.24023438 231.1027832 C212.24987155 233.90021295 212.28094551 236.69688447 212.3125 239.49414062 C212.38598048 251.92213533 211.27989903 263.78575404 209 276 C208.78617676 277.15137451 208.57235352 278.30274902 208.35205078 279.48901367 C199.89385283 321.62665173 178.77073288 359.45227828 150.41064453 391.39990234 C147.90802395 394.23863119 145.45601775 397.12095668 143 400 C143.24645264 400.51272461 143.49290527 401.02544922 143.74682617 401.55371094 C146.5296294 407.35441068 149.2753387 413.17178297 152 419 C152.51820313 420.10085938 153.03640625 421.20171875 153.5703125 422.3359375 C157.24982398 430.59748214 159.18874274 439.17456023 161 448 C161.1959375 448.92425781 161.391875 449.84851563 161.59375 450.80078125 C163.46872755 465.56622943 162.24057449 480.54334387 159 495 C158.66328155 496.66598607 158.32842634 498.33235944 158 500 C156.30629189 498.35468355 154.6468216 496.69133029 153 495 C152.52304687 494.53078125 152.04609375 494.0615625 151.5546875 493.578125 C149.13197742 491.00313028 148.03324187 489.44848355 147.76953125 485.890625 C148.03623175 481.38835898 148.73718142 477.06435405 149.5 472.625 C153.56165603 446.79210888 148.7708973 422.57312915 135.54003906 399.95800781 C133.57492837 396.52050198 132.17198329 393.96785606 133 390 C134.73046875 387.921875 134.73046875 387.921875 137.1875 385.75 C172.94938309 351.70792458 196.8976024 295.83318557 198.28849792 246.9355011 C198.36985345 242.66500311 198.38518118 238.39617724 198.375 234.125 C198.37368576 232.77305542 198.37368576 232.77305542 198.37234497 231.39379883 C198.2611832 196.61901358 190.26223659 161.22728445 172.99414062 130.80175781 C172.00105667 129.00191509 171.07894858 127.18045105 170.171875 125.3359375 C165.34638697 115.62478687 159.24737528 107.29875666 152.47753906 98.84765625 C151.22803733 97.2851597 149.99844945 95.70676982 148.7734375 94.125 C131.4743827 71.91386791 110.33300896 54.94879292 86 41 C85.25411621 40.56945312 84.50823242 40.13890625 83.73974609 39.6953125 C59.56259342 25.90069762 32.96083345 17.78856931 5.55981445 13.37963867 C4.74085693 13.24017822 3.92189941 13.10071777 3.078125 12.95703125 C2.36043945 12.84335205 1.64275391 12.72967285 0.90332031 12.61254883 C-1 12 -1 12 -4 9 C-2.68 6.03 -1.36 3.06 0 0 Z " fill="#6B7075" transform="translate(454,211)"/>
<path d="M0 0 C2.5 2.25 2.5 2.25 5 5 C5 9 5 9 3.59057617 10.59228516 C2.93549072 11.11097168 2.28040527 11.6296582 1.60546875 12.1640625 C-12.73934629 24.02715201 -25.34302881 37.76500766 -36 53 C-36.66733154 53.94020996 -36.66733154 53.94020996 -37.34814453 54.89941406 C-40.37167303 59.18208972 -43.23427584 63.54686828 -46 68 C-46.60424805 68.96583008 -46.60424805 68.96583008 -47.22070312 69.95117188 C-78.62040979 120.95703452 -85.57360936 185.1288151 -72.33984375 242.734375 C-71.89073759 244.82238231 -71.44391208 246.91088226 -71 249 C-70.78851318 249.84530273 -70.57702637 250.69060547 -70.35913086 251.56152344 C-68.79454087 259.73685853 -72.80229593 265.79422774 -76.6875 272.75 C-77.37974468 274.03066495 -78.06982557 275.3125017 -78.7578125 276.59545898 C-80.48720658 279.8076991 -82.24386225 283.00408016 -84.00823975 286.19720459 C-85.50001 288.90890487 -86.96256945 291.63609058 -88.42578125 294.36328125 C-90.83790735 298.84857455 -93.28726704 303.31135985 -95.76318359 307.76171875 C-96.87817911 309.7795393 -97.96848564 311.80827475 -99.05078125 313.84375 C-102.31553206 319.80861622 -104.97517441 323.69225262 -111 327 C-111.66 327 -112.32 327 -113 327 C-110.93510073 321.56880468 -108.16809478 316.59218577 -105.40530396 311.49078369 C-104.41568496 309.6468526 -103.44617879 307.79343766 -102.48022461 305.93701172 C-99.30016431 299.86681033 -96.05489963 293.95721897 -92.22238159 288.27018738 C-83.82938091 275.78919146 -77.32909079 265.24282094 -80.08335876 249.81730652 C-81.44779584 243.25278133 -83.26210889 236.79702952 -85.18006897 230.37507629 C-86.96257107 224.3866777 -88.05715366 218.55710449 -88.5 212.3125 C-88.55929688 211.47750977 -88.61859375 210.64251953 -88.6796875 209.78222656 C-88.82844738 207.1879748 -88.92307242 204.59735477 -89 202 C-89.03561035 200.96439941 -89.0712207 199.92879883 -89.10791016 198.86181641 C-90.98256975 135.64977236 -69.95370277 72.14765706 -26.484375 25.640625 C-21.90004782 20.81000918 -17.2000281 16.09263434 -12.5 11.375 C-11.61473633 10.48506348 -10.72947266 9.59512695 -9.81738281 8.67822266 C-8.98045898 7.84339355 -8.14353516 7.00856445 -7.28125 6.1484375 C-6.15299805 5.02187744 -6.15299805 5.02187744 -5.00195312 3.87255859 C-3 2 -3 2 0 0 Z " fill="#6B7074" transform="translate(281,264)"/>
<path d="M0 0 C4.87011719 2.73291016 4.87011719 2.73291016 6.0390625 5.13671875 C6.23242188 5.97847656 6.42578125 6.82023438 6.625 7.6875 C6.85574219 8.6671875 7.08648438 9.646875 7.32421875 10.65625 C8.20322335 15.00554443 9.01980346 19.36492971 9.80517578 23.73193359 C11.55086915 33.29382826 14.0230132 42.67421967 16.75 52 C17.9933401 56.67300297 18.79031787 60.17906102 18 65 C14.38234877 70.96972151 8.54992467 75.09561168 3.16796875 79.37890625 C-5.51554861 86.42853298 -13.62767118 94.40478092 -21.38671875 102.44921875 C-25.02297975 105.94460766 -27.256053 107.42547781 -32.41796875 107.4140625 C-39.42449539 107.2294289 -45.65965269 105.4567669 -52.3125 103.375 C-54.76872639 102.63534278 -57.2257733 101.89840539 -59.68359375 101.1640625 C-60.9041748 100.79700195 -62.12475586 100.42994141 -63.38232422 100.05175781 C-69.77375777 98.19359236 -76.23847456 96.60811625 -82.71606445 95.07958984 C-87.90801552 93.79152315 -91.85612869 92.44442806 -96 89 C-97.79712924 84.58886459 -98.23101295 80.73576538 -98 76 C-97.07646729 76.36351562 -97.07646729 76.36351562 -96.13427734 76.734375 C-88.1147446 79.78106507 -79.93743761 81.93700046 -71.625 84 C-68.97026275 84.66239058 -66.31661855 85.32892771 -63.6640625 86 C-63.01964706 86.16259811 -62.37523163 86.32519623 -61.71128845 86.49272156 C-56.34675197 87.86656161 -51.0772013 89.48297573 -45.81323242 91.19848633 C-41.44860051 92.44200681 -37.44497917 93.11890855 -33 92 C-29.85411013 90.09590876 -27.50476972 87.67142759 -25 85 C-23.50264317 83.49736148 -22.00256629 81.99742931 -20.5 80.5 C-19.35917969 79.34757813 -19.35917969 79.34757813 -18.1953125 78.171875 C-14.93459844 74.94597283 -11.48469353 71.9797459 -8 69 C-6.06166376 67.32709455 -4.12544944 65.6517627 -2.18994141 63.97558594 C-0.82858658 62.79675374 0.53369747 61.61899366 1.89697266 60.44238281 C2.52651855 59.89807617 3.15606445 59.35376953 3.8046875 58.79296875 C4.37171387 58.3033667 4.93874023 57.81376465 5.52294922 57.30932617 C8.1289565 55.17878335 8.1289565 55.17878335 9.33374023 52.17529297 C9.4690212 43.8161671 7.23960309 36.11357123 5.0625 28.125 C2.52215697 18.76354715 0.36001705 9.75866139 0 0 Z " fill="#2A3C3C" transform="translate(533,638)"/>
<path d="M0 0 C2.32007708 3.48011561 3.20143393 6.89434456 4.25 10.8828125 C4.69092197 12.52645347 5.13218013 14.17000429 5.57373047 15.81347656 C5.80493591 16.67976685 6.03614136 17.54605713 6.27435303 18.43859863 C7.00580966 21.1465078 7.7611101 23.84666724 8.52392578 26.54589844 C10.73884649 34.41953858 12.92324376 42.24576058 14.4831543 50.2791748 C17.02584151 66.17198456 17.02584151 66.17198456 26.17480469 78.51660156 C33.16251311 82.73983905 40.93188084 85.13164074 48.81542969 87.08154297 C57.00817443 89.44439989 57.00817443 89.44439989 59.18286133 92.85522461 C60.90316531 99.04130314 61.84821986 105.20229892 62.6875 111.5625 C66.14682399 135.02475346 74.09729484 154.88210646 88.8984375 173.35546875 C92.63168001 178.05324789 93.26692798 180.84115898 93.125 186.6875 C93.11597656 187.38939453 93.10695313 188.09128906 93.09765625 188.81445312 C93.07413704 190.54311525 93.03826713 192.27160145 93 194 C89.05229836 190.25857466 85.83444504 186.30403376 82.6875 181.875 C82.23310547 181.25496094 81.77871094 180.63492188 81.31054688 179.99609375 C78 175.36630639 78 175.36630639 78 172 C77.34 172 76.68 172 76 172 C66.8188075 153.80073263 61.64863828 136.17441811 58.64770508 116.05395508 C58.45974365 114.81025146 58.27178223 113.56654785 58.078125 112.28515625 C57.83690918 110.61271851 57.83690918 110.61271851 57.59082031 108.90649414 C56.87122294 105.18893598 56.87122294 105.18893598 55 102 C52.71977001 100.76922257 50.59330284 99.7811181 48.19921875 98.8359375 C47.18913506 98.41871933 47.18913506 98.41871933 46.15864563 97.99307251 C44.00656892 97.10761269 41.84740112 96.24117401 39.6875 95.375 C38.24493721 94.78508879 36.80287336 94.19395593 35.36132812 93.6015625 C28.29997705 90.67421494 28.29997705 90.67421494 21.14013672 88.00537109 C19 87 19 87 17.55859375 84.015625 C17.18863281 82.77296875 16.81867188 81.5303125 16.4375 80.25 C16.23044434 79.57243652 16.02338867 78.89487305 15.81005859 78.19677734 C15.18637807 76.13656707 14.59073739 74.06986267 14 72 C13.68417969 70.93523437 13.36835938 69.87046875 13.04296875 68.7734375 C12.21367231 65.92912716 11.40891947 63.07908937 10.6171875 60.22412109 C9.59410545 56.53730247 8.56100243 52.85329006 7.52905273 49.16894531 C6.92538449 47.01119405 6.32333854 44.85298827 5.72290039 42.69433594 C4.25844782 37.43918751 2.77115233 32.19359272 1.21484375 26.96484375 C0.7969458 25.54860718 0.7969458 25.54860718 0.37060547 24.10375977 C-0.15244001 22.33757267 -0.68288888 20.5735541 -1.22216797 18.81225586 C-2.92593888 13.03147927 -4.37422004 7.69118092 -1.5 2.0625 C-1.005 1.381875 -0.51 0.70125 0 0 Z " fill="#2E3E3F" transform="translate(302,569)"/>
<path d="M0 0 C-1.24141458 4.02440229 -2.71253056 7.55692511 -4.80078125 11.2109375 C-5.35918701 12.19610352 -5.91759277 13.18126953 -6.49291992 14.19628906 C-7.09338135 15.24526367 -7.69384277 16.29423828 -8.3125 17.375 C-9.58728112 19.62684406 -10.86068543 21.87946803 -12.1328125 24.1328125 C-12.77895508 25.2765332 -13.42509766 26.42025391 -14.09082031 27.59863281 C-18.64004119 35.70345957 -23.03737665 43.89005934 -27.42431641 52.08349609 C-29.02394084 55.04431319 -30.65575579 57.98560951 -32.29296875 60.92578125 C-33.32079871 62.80442157 -34.34816297 64.68331678 -35.375 66.5625 C-35.85799561 67.41295898 -36.34099121 68.26341797 -36.83862305 69.13964844 C-38.90325793 72.96489927 -39.99929538 75.3256754 -40.00390625 79.73828125 C-38.20038006 85.59798697 -34.57993517 90.08799592 -31 95 C-30.26523438 96.02351562 -29.53046875 97.04703125 -28.7734375 98.1015625 C-18.66104422 111.73130997 -6.76545596 124.81218842 6.7734375 135.109375 C7.87558594 136.04523438 7.87558594 136.04523438 9 137 C9 137.66 9 138.32 9 139 C9.66 139 10.32 139 11 139 C13.28571429 147.42857143 13.28571429 147.42857143 13 152 C2.38301091 148.23630545 -5.94890949 138.62432781 -14 131 C-14.78745605 130.26354248 -14.78745605 130.26354248 -15.59082031 129.51220703 C-24.8438389 120.81391902 -32.57663437 111.28965432 -40 101 C-40.70898438 100.01773438 -41.41796875 99.03546875 -42.1484375 98.0234375 C-46 92.47212441 -46 92.47212441 -46 89 C-46.66 89 -47.32 89 -48 89 C-49.02649753 85.21046145 -49.05135672 83.21887109 -47.33203125 79.69140625 C-46.7438562 78.46526611 -46.7438562 78.46526611 -46.14379883 77.21435547 C-45.70447021 76.33924316 -45.2651416 75.46413086 -44.8125 74.5625 C-44.35834717 73.6358252 -43.90419434 72.70915039 -43.4362793 71.75439453 C-38.78797872 62.37245997 -33.7867611 53.18763324 -28.69189453 44.04248047 C-27.17562198 41.31581545 -25.66821231 38.5844481 -24.16496277 35.85058594 C-22.85137822 33.46242122 -21.53458784 31.07603362 -20.21713257 28.69000244 C-19.28573419 27.0022525 -18.35632808 25.31340359 -17.42700195 23.62451172 C-14.27518047 17.93943041 -11.04338693 12.31112142 -7.671875 6.75390625 C-7.01799805 5.67568604 -6.36412109 4.59746582 -5.69042969 3.48657227 C-3.86272151 0.79806738 -3.23812256 0 0 0 Z " fill="#2D3E3F" transform="translate(278,485)"/>
<path d="M0 0 C-0.45890625 0.4846875 -0.9178125 0.969375 -1.390625 1.46875 C-8.11594647 8.81573984 -10.85777591 14.36806573 -12.375 24.25 C-14.67041043 38.68295646 -23.68508601 55.33798134 -35 65 C-37.0144043 65.82788086 -37.0144043 65.82788086 -39.32421875 66.46484375 C-40.18055908 66.70549561 -41.03689941 66.94614746 -41.91918945 67.1940918 C-42.83273193 67.4394165 -43.74627441 67.68474121 -44.6875 67.9375 C-45.62489014 68.19764893 -46.56228027 68.45779785 -47.52807617 68.72583008 C-54.5528446 70.65873183 -61.6169329 72.40950479 -68.6953125 74.1328125 C-71.9087729 74.97606097 -74.88398071 76.02779697 -77.94921875 77.28515625 C-81.83354625 78.63912184 -85.89400354 79.36656959 -89.90625 80.25 C-92.39801949 80.85406533 -94.63491381 81.53793104 -97 82.5 C-101.49602848 84.32889294 -106.1780991 85.20893925 -110.90625 86.25 C-113.39801949 86.85406533 -115.63491381 87.53793104 -118 88.5 C-122.49602848 90.32889294 -127.1780991 91.20893925 -131.90625 92.25 C-134.39801949 92.85406533 -136.63491381 93.53793104 -139 94.5 C-145.99161956 97.33242583 -153.62233924 98.54910568 -161 100 C-157.30180795 95.03394105 -152.01356038 94.20020145 -146.328125 92.64013672 C-145.24156616 92.33065094 -144.15500732 92.02116516 -143.03552246 91.70230103 C-139.44371076 90.68242811 -135.84697152 89.68119479 -132.25 88.6796875 C-129.7538731 87.97401526 -127.2581092 87.26705787 -124.76269531 86.55886841 C-118.8628411 84.88735394 -112.95993812 83.2270768 -107.05524063 81.57276452 C-95.85455253 78.43414473 -84.66130566 75.26914435 -73.46813965 72.10382462 C-69.78893038 71.06567238 -66.10800888 70.03378478 -62.42675781 69.00289917 C-60.17509809 68.36907161 -57.92346883 67.73513583 -55.671875 67.10107422 C-54.64525757 66.81532532 -53.61864014 66.52957642 -52.56091309 66.23516846 C-51.61880981 65.96894684 -50.67670654 65.70272522 -49.70605469 65.42843628 C-48.88901062 65.19949614 -48.07196655 64.97055599 -47.23016357 64.73467827 C-43.32763556 63.44907637 -40.80484054 62.19757294 -38.44921875 58.796875 C-38.00126953 58.15363281 -37.55332031 57.51039063 -37.09179688 56.84765625 C-36.62837891 56.15542969 -36.16496094 55.46320313 -35.6875 54.75 C-34.96336914 53.67298828 -34.96336914 53.67298828 -34.22460938 52.57421875 C-27.697037 42.69135216 -22.92810971 33.4871785 -21.12426758 21.70385742 C-19.87480854 14.11299775 -16.6643191 8.0858069 -10.875 3 C-4.64909058 -1.33106743 -4.64909058 -1.33106743 0 0 Z " fill="#314243" transform="translate(585,365)"/>
<path d="M0 0 C0.99 1.485 0.99 1.485 2 3 C0.94941406 3.18433594 -0.10117187 3.36867188 -1.18359375 3.55859375 C-10.73352496 5.44674118 -17.08553438 7.75518041 -23 16 C-25.05408583 19.23913535 -26.55255128 22.45092121 -27.6171875 26.13671875 C-28.8554262 30.27182453 -29.46461214 31.67334404 -33.31640625 34.0234375 C-38.87517437 36.59650263 -44.75675677 37.93282932 -50.6875 39.375 C-53.09560764 39.97825537 -55.50315475 40.5837524 -57.91015625 41.19140625 C-59.69897217 41.64217529 -59.69897217 41.64217529 -61.52392578 42.10205078 C-67.42254657 43.62579901 -73.26933324 45.32230325 -79.11206055 47.04638672 C-95.39838556 51.81204961 -95.39838556 51.81204961 -100 51 C-101.6328125 48.9765625 -101.6328125 48.9765625 -103 47 C-93.57714317 44.36819752 -84.14807871 41.76239145 -74.703125 39.2109375 C-72.0958878 38.50377291 -69.48882694 37.79596226 -66.88183594 37.08789062 C-65.10635802 36.6069634 -63.33030085 36.1281702 -61.55371094 35.65136719 C-58.93520984 34.94796031 -56.31902018 34.23646557 -53.703125 33.5234375 C-52.91560852 33.31399506 -52.12809204 33.10455261 -51.31671143 32.88876343 C-46.93483278 31.68530144 -42.9468588 30.32450232 -39 28 C-37.68407752 25.62717388 -37.68407752 25.62717388 -37.0625 22.875 C-34.43358319 14.69614771 -29.81767766 8.2372995 -22.23046875 3.99609375 C-15.04622199 0.78771735 -7.84211796 -0.74686838 0 0 Z " fill="#324343" transform="translate(600,459)"/>
<path d="M0 0 C0.495 0.99 0.495 0.99 1 2 C0.69578125 2.73992187 0.3915625 3.47984375 0.078125 4.2421875 C-1.15424837 7.39456287 -1.26658988 9.74895854 -1.25 13.125 C-1.25515625 14.15882813 -1.2603125 15.19265625 -1.265625 16.2578125 C-1.1321901 19.82548176 -1.1321901 19.82548176 -0.32836914 22.49291992 C1.10157162 27.98274027 1.36669047 31.31431021 -1.33984375 36.41015625 C-2.50821222 38.31355544 -3.70949487 40.19701969 -4.9375 42.0625 C-6.24133972 44.15906498 -7.54335775 46.25676373 -8.84375 48.35546875 C-9.52695312 49.43747559 -10.21015625 50.51948242 -10.9140625 51.63427734 C-13.02903378 55.04684687 -15.04880784 58.49790976 -17.03125 61.98828125 C-17.35960342 62.56572586 -17.68795685 63.14317047 -18.02626038 63.7381134 C-19.60666961 66.52190301 -21.18268821 69.30817789 -22.75952148 72.09399414 C-33.23944736 90.38646523 -33.23944736 90.38646523 -37.20678711 91.76904297 C-38.09442749 91.8833667 -38.09442749 91.8833667 -39 92 C-37.68739967 88.52046925 -36.15960266 85.37638667 -34.26953125 82.17578125 C-33.44618286 80.77440918 -33.44618286 80.77440918 -32.60620117 79.34472656 C-32.01427979 78.3440918 -31.4223584 77.34345703 -30.8125 76.3125 C-29.55425575 74.16822204 -28.29645982 72.02368096 -27.0390625 69.87890625 C-26.05341309 68.20078857 -26.05341309 68.20078857 -25.04785156 66.48876953 C-21.91706687 61.15681047 -18.79452899 55.82016384 -15.68978882 50.47299194 C-14.7009884 48.77318733 -13.70661 47.07663148 -12.7121582 45.38012695 C-12.10976318 44.34202881 -11.50736816 43.30393066 -10.88671875 42.234375 C-10.35264404 41.31881836 -9.81856934 40.40326172 -9.26831055 39.45996094 C-7.22726287 35.50123209 -6.74618388 33.08722256 -7.9375 28.8125 C-10.06930807 19.80009763 -9.2579883 12.35273103 -5 4 C-2.25 1.3125 -2.25 1.3125 0 0 Z " fill="#38494A" transform="translate(524,306)"/>
<path d="M0 0 C3.37939811 1.58983505 6.42675752 3.53878093 9.5625 5.5625 C21.34638456 12.9444173 34.22482769 18.28406598 47 23.6875 C69.64976139 33.31236459 69.64976139 33.31236459 74 41 C74.6484375 43.71484375 74.6484375 43.71484375 75 46 C74.37996094 45.57589844 73.75992188 45.15179688 73.12109375 44.71484375 C63.03279148 38.03336262 52.2190878 33.34663182 41.11669922 28.66015625 C29.18106979 23.60956756 17.88055511 18.70478593 7.8125 10.375 C7.25884766 9.91947754 6.70519531 9.46395508 6.13476562 8.99462891 C2.99596886 6.27335134 1.17721065 4.00107179 0 0 Z " fill="#344445" transform="translate(254,229)"/>
<path d="M0 0 C0.99 1.98 0.99 1.98 2 4 C1.3287207 4.1451001 0.65744141 4.2902002 -0.03417969 4.43969727 C-23.87823485 9.61451039 -47.59397398 15.08681507 -70.87890625 22.421875 C-75.41878432 23.8502253 -79.9944461 25.09717822 -84.60058594 26.29321289 C-87.65639096 27.19335082 -90.23569236 28.43106863 -93 30 C-92.39400793 26.60644441 -91.31902231 24.55434919 -89 22 C-86.50854492 20.87841797 -86.50854492 20.87841797 -83.48046875 19.9921875 C-82.33118896 19.65010254 -81.18190918 19.30801758 -79.99780273 18.95556641 C-78.74040283 18.59897949 -77.48300293 18.24239258 -76.1875 17.875 C-74.86708487 17.4907033 -73.54685775 17.10576009 -72.22680664 16.72021484 C-12.04844454 -0.70873203 -12.04844454 -0.70873203 0 0 Z " fill="#344545" transform="translate(487,497)"/>
<path d="M0 0 C1.62196855 3.13540535 2.64534032 6.05902709 3.515625 9.48828125 C3.79414307 10.5752832 4.07266113 11.66228516 4.35961914 12.78222656 C4.65344482 13.9472168 4.94727051 15.11220703 5.25 16.3125 C5.87870687 18.77218639 6.50761638 21.23182099 7.13671875 23.69140625 C7.45044434 24.92391113 7.76416992 26.15641602 8.08740234 27.42626953 C9.39307242 32.53927075 10.72627004 37.64491631 12.0625 42.75 C12.5521823 44.62497416 13.04176579 46.49997412 13.53125 48.375 C13.77230469 49.29796875 14.01335937 50.2209375 14.26171875 51.171875 C15.01898365 54.07272045 15.77525552 56.97382322 16.53125 59.875 C16.78503418 60.84791992 17.03881836 61.82083984 17.30029297 62.82324219 C17.80357183 64.75575562 18.305232 66.68869141 18.80517578 68.62207031 C20.00105093 73.23529994 21.22586659 77.83612247 22.5234375 82.421875 C22.7618335 83.27942383 23.00022949 84.13697266 23.24584961 85.02050781 C23.69113033 86.61679126 24.14686961 88.21021308 24.61547852 89.79980469 C25.91615835 94.50662327 26.20796087 98.14312107 25 103 C24.01 103.495 24.01 103.495 23 104 C18.38082178 89.40279365 14.49448721 74.61744304 10.58056641 59.8190918 C9.69795175 56.48708129 8.80329868 53.15866722 7.89794922 49.83276367 C6.79054067 45.76394368 5.70576089 41.6896722 4.63570404 37.61087608 C4.23032721 36.08022129 3.81754558 34.55150341 3.39646149 33.02509499 C0.31919247 21.83837242 -0.49128062 11.58953916 0 0 Z " fill="#374849" transform="translate(368,22)"/>
<path d="M0 0 C3.97495012 0.82811461 5.8981764 1.95493941 9 4.625 C10.59152048 7.90321769 11.43239906 11.32389714 12.32421875 14.84765625 C12.75162605 16.41931297 12.75162605 16.41931297 13.18766785 18.02272034 C13.81087603 20.32319559 14.42394456 22.62643533 15.02825928 24.9319458 C16.03172451 28.74556748 17.06851177 32.5493089 18.11572266 36.35107422 C20.1848862 43.87798014 22.2180334 51.41429788 24.24462891 58.95275879 C25.01048002 61.79803067 25.77967716 64.64239379 26.54884815 67.48676968 C27.2993068 70.26349696 28.04781076 73.04074826 28.79572105 75.81816292 C29.31648821 77.75090819 29.83874042 79.68325313 30.36103821 81.61558533 C32.05531494 87.927159 33.64494232 94.23172028 35 100.625 C34.01 100.295 33.02 99.965 32 99.625 C31.032267 97.02241105 30.27435139 94.5420394 29.57983398 91.86401367 C29.35827637 91.05099289 29.13671875 90.23797211 28.90844727 89.40031433 C28.17585554 86.70090261 27.46116259 83.99706994 26.74609375 81.29296875 C26.2407333 79.42034837 25.73413029 77.54806291 25.22633362 75.67610168 C23.88953934 70.73704431 22.56726672 65.79421994 21.24865723 60.85028076 C19.1380065 52.94590174 17.00608582 45.04724099 14.87312508 37.14885902 C14.12958468 34.38700796 13.39250342 31.62349469 12.65635681 28.85966492 C12.20130295 27.164462 11.74611503 25.46929506 11.29077148 23.77416992 C11.08760818 23.00466003 10.88444489 22.23515015 10.67512512 21.44232178 C9.33633478 16.32671453 9.33633478 16.32671453 7 11.625 C4.31242126 10.09961747 2.58962945 9.59551853 -0.5 9.75 C-3.57287521 10.82550632 -5.57757063 12.4794197 -8 14.625 C-9.47085238 11.68329525 -9.44019701 9.89503493 -9 6.625 C-6.6298073 2.9999994 -4.26491849 0.88852469 0 0 Z " fill="#48595A" transform="translate(375,256.375)"/>
<path d="M0 0 C5.24099655 0.41105855 8.24039194 1.24039194 12 5 C12 5.66 12 6.32 12 7 C12.66 7 13.32 7 14 7 C14.81524512 11.42000369 15.35357353 14.91848097 13.9375 19.25 C11.64922339 22.49787648 9.60111517 25.24810613 6 27 C1.50853899 27.75212459 -2.42445195 28.04680481 -6.3046875 25.46875 C-6.86414063 24.9840625 -7.42359375 24.499375 -8 24 C-7.45730469 23.69707031 -6.91460938 23.39414062 -6.35546875 23.08203125 C-0.47376971 19.6814173 -0.47376971 19.6814173 3 14 C3.54745875 8.89038503 2.88138573 6.20202085 0 2 C0 1.34 0 0.68 0 0 Z " fill="#2B3D3D" transform="translate(601,478)"/>
<path d="M0 0 C-1.32 0.33 -2.64 0.66 -4 1 C-4 1.66 -4 2.32 -4 3 C-20.04031385 7.86011905 -20.04031385 7.86011905 -28.0625 9.625 C-32.184646 10.53197403 -35.94396264 11.66364582 -39.84375 13.25 C-43.76672869 14.61451433 -47.85485759 15.35795029 -51.90625 16.25 C-54.39801949 16.85406533 -56.63491381 17.53793104 -59 18.5 C-63.49602848 20.32889294 -68.1780991 21.20893925 -72.90625 22.25 C-75.39801949 22.85406533 -77.63491381 23.53793104 -80 24.5 C-83.43439373 25.89704152 -86.87998819 26.70293318 -90.5 27.5 C-95.58100632 28.62063765 -100.17165139 30.08531003 -105 32 C-112.36363636 34.45454545 -112.36363636 34.45454545 -116 33 C-114.515 32.505 -114.515 32.505 -113 32 C-112.67 31.34 -112.34 30.68 -112 30 C-110.18303871 29.26697254 -110.18303871 29.26697254 -107.76187134 28.57588196 C-106.39059837 28.17833206 -106.39059837 28.17833206 -104.99162292 27.77275085 C-103.98070084 27.48849747 -102.96977875 27.20424408 -101.92822266 26.91137695 C-100.86975632 26.60711792 -99.81128998 26.30285889 -98.7207489 25.98937988 C-95.20410363 24.98094778 -91.6842527 23.98426248 -88.1640625 22.98828125 C-85.7287441 22.29416382 -83.29355478 21.59959338 -80.85848999 20.90458679 C-75.74696825 19.44769505 -70.63387441 17.9965037 -65.51953125 16.54956055 C-59.60399311 14.87582585 -53.69194283 13.19019169 -47.7815491 11.49838859 C-42.10107247 9.87280565 -36.41789379 8.25683705 -30.73353195 6.64488792 C-28.31260874 5.95726084 -25.89242189 5.26703592 -23.4729805 4.57421303 C-20.09445535 3.60801333 -16.71301945 2.65278231 -13.33056641 1.70043945 C-12.32369278 1.41011337 -11.31681915 1.11978729 -10.2794342 0.82066345 C-9.35961258 0.56408966 -8.43979095 0.30751587 -7.49209595 0.04316711 C-6.29248702 -0.29722611 -6.29248702 -0.29722611 -5.06864357 -0.64449596 C-3 -1 -3 -1 0 0 Z " fill="#465656" transform="translate(540,431)"/>
<path d="M0 0 C0.33 0 0.66 0 1 0 C0.48425087 5.54430311 -0.94978483 9.69866855 -3.5 14.625 C-3.85674805 15.32375244 -4.21349609 16.02250488 -4.58105469 16.74243164 C-8.15324531 23.56892213 -12.46099814 29.78558502 -17 36 C-19.07287534 38.86764944 -21.13415041 41.74333933 -23.1875 44.625 C-23.70054687 45.34478027 -24.21359375 46.06456055 -24.7421875 46.80615234 C-28.62945225 52.32531103 -32.0136994 57.93571412 -35 64 C-35.66 64 -36.32 64 -37 64 C-36.33229732 49.31054106 -24.17134401 36.39361072 -16 25 C-10.71414617 17.57376053 -5.75979332 10.12574128 -1.3125 2.16796875 C-0.879375 1.45253906 -0.44625 0.73710937 0 0 Z " fill="#384849" transform="translate(456,176)"/>
<path d="M0 0 C3.00056245 2.02279296 5.49670041 4.39681813 8 7 C8.33 7.33 8.66 7.66 9 8 C9.07475009 15.10125891 7.11667698 19.66070324 2.25 24.875 C-1.19778573 26.59889287 -4.17509018 26.19124549 -8 26 C-7.731875 25.484375 -7.46375 24.96875 -7.1875 24.4375 C-6.795625 23.633125 -6.40375 22.82875 -6 22 C-5.443125 20.88625 -4.88625 19.7725 -4.3125 18.625 C-2.85159502 14.59011959 -2.47070934 12.99314782 -4 9 C-5.738561 7.261439 -7.53595932 5.76986546 -9.50390625 4.296875 C-9.99761719 3.86890625 -10.49132812 3.4409375 -11 3 C-11 2.34 -11 1.68 -11 1 C-7.21312456 -0.26229181 -3.90250966 -0.87875661 0 0 Z " fill="#2C3D3E" transform="translate(608,377)"/>
<path d="M0 0 C0.66 0.33 1.32 0.66 2 1 C1.63555295 6.91315332 -0.92439961 10.01051427 -4.5 14.4375 C-12.09865708 24.21077275 -19.26821141 34.366344 -23.1484375 46.2421875 C-23.42945313 46.82226562 -23.71046875 47.40234375 -24 48 C-25.485 48.495 -25.485 48.495 -27 49 C-26.69504743 31.92265614 -14.84551558 15.45695279 -4 3 C-1.6875 1.125 -1.6875 1.125 0 0 Z " fill="#374848" transform="translate(409,599)"/>
<path d="M0 0 C2.39718461 2.19741923 3.80871334 3.86068823 4.35546875 7.1171875 C4.53223513 12.11715079 3.80812278 15.73581356 1 20 C-2 22 -2 22 -5 22 C-4.96519531 21.00419922 -4.96519531 21.00419922 -4.9296875 19.98828125 C-4.61009281 13.18638891 -4.61009281 13.18638891 -7 7 C-9.52372901 5.63921965 -9.52372901 5.63921965 -12 5 C-12 4.34 -12 3.68 -12 3 C-13.32 2.67 -14.64 2.34 -16 2 C-14 -1 -14 -1 -12.25 -1.6875 C-7.7414715 -2.31368451 -3.84915876 -2.69441113 0 0 Z " fill="#2A3B3C" transform="translate(560,310)"/>
<path d="M0 0 C3.93289675 0.81935349 6.0149103 1.91128209 9 4.625 C10.2798594 7.41486895 10.60335572 9.50142632 11 12.625 C10.01 14.11 10.01 14.11 9 15.625 C8.773125 15.00625 8.54625 14.3875 8.3125 13.75 C6.56566945 10.92179816 5.18884507 10.44075106 2 9.625 C-2.4123308 9.84561654 -4.75220063 11.7483777 -8 14.625 C-9.47085238 11.68329525 -9.44019701 9.89503493 -9 6.625 C-6.6298073 2.9999994 -4.26491849 0.88852469 0 0 Z " fill="#2E3E3F" transform="translate(375,256.375)"/>
<path d="M0 0 C5.62918138 0.57107637 10.15077914 2.64785294 15.1875 5.0625 C16.44300659 5.65889282 16.44300659 5.65889282 17.72387695 6.26733398 C24.39473378 9.52249549 30.26003532 13.26614149 36 18 C35.01 18.66 34.02 19.32 33 20 C32.26523437 19.48953125 32.26523437 19.48953125 31.515625 18.96875 C24.68127258 14.53820429 17.46483303 11.64754087 9.87011719 8.8046875 C9.02739258 8.48371094 8.18466797 8.16273438 7.31640625 7.83203125 C6.55787354 7.55077393 5.79934082 7.2695166 5.01782227 6.97973633 C2.81725811 5.91127124 1.50599448 4.92560476 0 3 C0 2.01 0 1.02 0 0 Z " fill="#384849" transform="translate(515,572)"/>
<path d="M0 0 C-2.70320522 3.49164008 -6.45427091 4.41213207 -10.5 5.6875 C-11.17675781 5.91244141 -11.85351562 6.13738281 -12.55078125 6.36914062 C-15.47985337 7.31950032 -17.90184951 8 -21 8 C-21 7.34 -21 6.68 -21 6 C-18.44114774 4.98968935 -15.87859624 3.99159855 -13.3125 3 C-12.59126953 2.71382813 -11.87003906 2.42765625 -11.12695312 2.1328125 C-7.28959679 0.6609498 -4.18433411 -0.39614998 0 0 Z " fill="#405151" transform="translate(343,487)"/>
<path d="M0 0 C0.99 0.495 0.99 0.495 2 1 C2.8013619 3.85741085 3.49708506 6.66711443 4.125 9.5625 C4.30675781 10.36880859 4.48851562 11.17511719 4.67578125 12.00585938 C5.12467118 14.00223825 5.56329743 16.0009198 6 18 C5.01 17.67 4.02 17.34 3 17 C0.78196857 11.6420393 -0.47015441 5.79857107 0 0 Z " fill="#435454" transform="translate(404,339)"/>
<path d="M0 0 C2.12600304 3.18900456 3.02136239 5.90414569 4.125 9.5625 C4.47820312 10.71878906 4.83140625 11.87507813 5.1953125 13.06640625 C6 16 6 16 6 18 C5.01 17.67 4.02 17.34 3 17 C0.78196857 11.6420393 -0.47015441 5.79857107 0 0 Z " fill="#435354" transform="translate(410,361)"/>
<path d="M0 0 C1.22589844 0.01353516 1.22589844 0.01353516 2.4765625 0.02734375 C3.41628906 0.04474609 3.41628906 0.04474609 4.375 0.0625 C1.9296615 3.02777758 -0.07102347 3.61832214 -3.8125 4.25 C-4.71355469 4.40855469 -5.61460937 4.56710937 -6.54296875 4.73046875 C-7.57357422 4.89482422 -7.57357422 4.89482422 -8.625 5.0625 C-6.51899199 0.39919656 -5.01778996 -0.07168271 0 0 Z " fill="#3E4E4F" transform="translate(551.625,350.9375)"/>
<path d="M0 0 C0.33 0 0.66 0 1 0 C0.49202991 4.3177458 -0.19682779 8.03302114 -2 12 C-2.99 12 -3.98 12 -5 12 C-5 8.55639368 -4.20408468 7.25204608 -2.5 4.3125 C-2.0359375 3.50425781 -1.571875 2.69601563 -1.09375 1.86328125 C-0.7328125 1.24839844 -0.371875 0.63351563 0 0 Z " fill="#404F50" transform="translate(456,176)"/>
<path d="M0 0 C0.33 0.66 0.66 1.32 1 2 C-8.41002278 4.11161731 -8.41002278 4.11161731 -13 5 C-8.82383994 0.37639422 -6.09215567 -0.16922655 0 0 Z " fill="#3D4F4F" transform="translate(521,436)"/>
<path d="M0 0 C3.00221784 4.50332676 4.31896025 8.57767579 4 14 C3.34 14 2.68 14 2 14 C0.66416101 9.15758367 -0.25328119 5.06562383 0 0 Z " fill="#435454" transform="translate(416,383)"/>
<path d="M0 0 C-2.60313168 3.90469752 -4.49467394 4.06786357 -9 5 C-11.4375 4.625 -11.4375 4.625 -13 4 C-12.01 3.67 -11.02 3.34 -10 3 C-9.67 2.34 -9.34 1.68 -9 1 C-5.99083491 -0.07470182 -3.17106439 -0.08808512 0 0 Z " fill="#3D4F4F" transform="translate(367,480)"/>
<path d="M0 0 C2 1 2 1 2.703125 2.99609375 C2.88359375 3.80175781 3.0640625 4.60742188 3.25 5.4375 C3.44078125 6.24058594 3.6315625 7.04367187 3.828125 7.87109375 C3.88484375 8.57363281 3.9415625 9.27617188 4 10 C3.34 10.66 2.68 11.32 2 12 C0.70756464 7.8803623 -0.26252625 4.33168317 0 0 Z " fill="#4A5A5B" transform="translate(432,704)"/>
<path d="M0 0 C0.66 0.33 1.32 0.66 2 1 C-0.64 3.64 -3.28 6.28 -6 9 C-6.99 8.67 -7.98 8.34 -9 8 C-6.03 5.36 -3.06 2.72 0 0 Z " fill="#728788" transform="translate(534,295)"/>
<path d="M0 0 C1.60080151 4.00200378 0.29279692 7.04556236 -1 11 C-1.33 11 -1.66 11 -2 11 C-2 7.7 -2 4.4 -2 1 C-1.34 0.67 -0.68 0.34 0 0 Z " fill="#415152" transform="translate(382,649)"/>
<path d="M0 0 C0.99 0.495 0.99 0.495 2 1 C2.4140625 3.06640625 2.4140625 3.06640625 2.625 5.5625 C2.69976562 6.38878906 2.77453125 7.21507812 2.8515625 8.06640625 C2.92503906 9.02353516 2.92503906 9.02353516 3 10 C2.34 9.67 1.68 9.34 1 9 C0.5859375 6.93359375 0.5859375 6.93359375 0.375 4.4375 C0.30023438 3.61121094 0.22546875 2.78492188 0.1484375 1.93359375 C0.09945313 1.29550781 0.05046875 0.65742187 0 0 Z " fill="#465758" transform="translate(423,671)"/>
<path d="M0 0 C-2.39509338 2.89932357 -4.31245243 3.50168276 -8 4 C-8 3.01 -8 2.02 -8 1 C-5.07175348 0.02391783 -3.04386724 -0.08226668 0 0 Z " fill="#3E5050" transform="translate(353,484)"/>
<path d="M0 0 C0.66 0 1.32 0 2 0 C3.2890625 1.53125 3.2890625 1.53125 4.625 3.5 C5.07101563 4.1496875 5.51703125 4.799375 5.9765625 5.46875 C6.31429687 5.9740625 6.65203125 6.479375 7 7 C6.01 7 5.02 7 4 7 C0 2.65714286 0 2.65714286 0 0 Z " fill="#506061" transform="translate(248,222)"/>
<path d="M0 0 C0.99 0.495 0.99 0.495 2 1 C2.4140625 3.06640625 2.4140625 3.06640625 2.625 5.5625 C2.69976562 6.38878906 2.77453125 7.21507812 2.8515625 8.06640625 C2.92503906 9.02353516 2.92503906 9.02353516 3 10 C0.70366176 6.55549263 0.45983515 4.06187717 0 0 Z " fill="#49595A" transform="translate(429,693)"/>
<path d="M0 0 C0.99 0.495 0.99 0.495 2 1 C2.4140625 3.06640625 2.4140625 3.06640625 2.625 5.5625 C2.69976562 6.38878906 2.77453125 7.21507812 2.8515625 8.06640625 C2.92503906 9.02353516 2.92503906 9.02353516 3 10 C0.70366176 6.55549263 0.45983515 4.06187717 0 0 Z " fill="#49595A" transform="translate(426,682)"/>
<path d="M0 0 C4.875 1.75 4.875 1.75 6 4 C5.01 4.33 4.02 4.66 3 5 C1.68 3.68 0.36 2.36 -1 1 C-0.67 0.67 -0.34 0.34 0 0 Z " fill="#465657" transform="translate(545,587)"/>
</svg>
